<?xml version="1.0" encoding="UTF-8" standalone="no"?>
<!DOCTYPE svg  PUBLIC '-//W3C//DTD SVG 1.1//EN'  'http://www.w3.org/Graphics/SVG/1.1/DTD/svg11.dtd'>
<svg xmlns="http://www.w3.org/2000/svg">
<defs>
<font id="NeutrafaceSlabDisplay-Medium" horiz-adv-x="661">
<font-face underline-position="-50" font-weight="500" descent="-200" panose-1="2 6 6 3 2 2 5 2 4 4" units-per-em="1000" unicode-range="U+0020-2212" bbox="-30 -223 954 872" x-height="329" underline-thickness="50" font-family="NeutrafaceSlabDisplay" ascent="800" cap-height="680"/>
<missing-glyph horiz-adv-x="1000"/>
<glyph glyph-name=".notdef" horiz-adv-x="1000"/>
<glyph glyph-name=".null" horiz-adv-x="0"/>
<glyph glyph-name="nonmarkingreturn" horiz-adv-x="1000"/>
<glyph glyph-name="space" horiz-adv-x="179" unicode=" "/>
<glyph glyph-name="exclam" horiz-adv-x="220" unicode="!" d="M110 -6q-19 0 -33 14t-14 33t14 33t33 14t33 -14t14 -33t-14 -33t-33 -14zM83 182l-6 498h67l-7 -498h-54z"/>
<glyph glyph-name="quotedbl" horiz-adv-x="263" unicode='&quot;' d="M46 509l-8 171h67l-8 -171h-51zM166 509l-8 171h67l-8 -171h-51z"/>
<glyph glyph-name="numbersign" horiz-adv-x="436" unicode="#" d="M281 356h-99l-28 -110h99zM128 356h-73v49h85l27 109h54l-27 -109h98l28 109h54l-28 -109h69v-49h-81l-27 -110h75v-48h-88l-25 -103h-55l26 103h-98l-26 -103h-54l26 103h-68v48h80z"/>
<glyph glyph-name="dollar" horiz-adv-x="413" unicode="$" d="M103 394q0 -36 19 -54t63 -33v164q-37 -5 -59 -25t-23 -52zM330 131q0 37 -22 58t-76 39v-186q44 4 71 28t27 61zM185 -116v109q-73 7 -114 59v-52h-47v155h42q18 -102 119 -113v202l-19 6q-59 20 -91 52t-32 90q1 55 41 90t101 39v90h47v-93q57 -7 83 -44v40h47v-144 h-43q-9 87 -87 100v-179l22 -7q70 -24 102 -58t33 -91q0 -65 -42 -101t-115 -41v-109h-47z"/>
<glyph glyph-name="percent" horiz-adv-x="627" unicode="%" d="M467 41q32 -1 53 21t21 55t-21 55t-53 22q-31 0 -52 -22t-21 -55t21 -55t52 -21zM467 -8q-52 0 -90 36t-38 89q0 55 38 91t90 36q53 0 91 -36t38 -91q0 -53 -38 -89t-91 -36zM128 0l309 514h62l-309 -514h-62zM160 319q31 0 52 22t21 55q0 32 -21 54t-52 22 q-32 0 -53 -22t-21 -54q0 -34 21 -56t53 -21zM160 270q-52 0 -90 36t-38 90t38 90t90 36t90 -36t37 -90q1 -54 -37 -90t-90 -36z"/>
<glyph glyph-name="ampersand" horiz-adv-x="663" unicode="&amp;" d="M211 552q0 -46 45 -103l14 -18q95 56 95 124q0 35 -20 57t-54 22q-37 0 -59 -22t-21 -60zM261 49q105 0 169 80l-184 232q-74 -41 -108 -81t-33 -96q-1 -62 43 -98t113 -37zM619 322h-62q-8 -104 -54 -186l70 -88h68v-48h-109l-66 83q-81 -91 -205 -91q-99 0 -161 52 t-62 137q0 75 46 125t130 95l-13 18q-53 69 -53 132q0 59 40 98t103 39q62 0 99 -38t37 -97q0 -91 -125 -162l162 -206q29 60 35 137h-62v48h182v-48z"/>
<glyph glyph-name="quotesingle" horiz-adv-x="143" unicode="&apos;" d="M46 509l-8 171h67l-8 -171h-51z"/>
<glyph glyph-name="parenleft" horiz-adv-x="273" unicode="(" d="M211 -136q-170 176 -170 427t170 427l39 -33q-146 -164 -146 -394t146 -394z"/>
<glyph glyph-name="parenright" horiz-adv-x="273" unicode=")" d="M63 718q169 -175 169 -427t-169 -427l-40 33q146 164 146 394t-146 394z"/>
<glyph glyph-name="asterisk" horiz-adv-x="358" unicode="*" d="M153 430l7 93l-74 -52l-26 45l83 39l-83 38l26 46l74 -53l-7 94h53l-8 -94l74 53l26 -46l-83 -38l83 -39l-26 -45l-74 52l8 -93h-53z"/>
<glyph glyph-name="plus" horiz-adv-x="334" unicode="+" d="M195 224v-111h-56v111h-101v53h101v110h56v-110h101v-53h-101z"/>
<glyph glyph-name="comma" horiz-adv-x="174" unicode="," d="M42 -82l26 80q-28 11 -28 43q0 19 14 33t33 14t33 -14t14 -33q0 -17 -14 -38l-43 -85h-35z"/>
<glyph glyph-name="hyphen" horiz-adv-x="235" unicode="-" d="M36 164v52h162v-52h-162z"/>
<glyph glyph-name="period" horiz-adv-x="174" unicode="." d="M87 -6q-19 0 -33 14t-14 33t14 33t33 14t33 -14t14 -33t-14 -33t-33 -14z"/>
<glyph glyph-name="slash" horiz-adv-x="400" unicode="/" d="M3 -128l299 838h63l-299 -838h-63z"/>
<glyph glyph-name="zero" horiz-adv-x="506" unicode="0" d="M253 45q71 1 112 59t41 153t-41 153t-112 58t-112 -58t-41 -153t41 -153t112 -59zM253 -8q-95 0 -156 74t-61 191t60 191t157 74q96 0 157 -74t61 -191q1 -117 -61 -191t-157 -74z"/>
<glyph glyph-name="one" horiz-adv-x="251" unicode="1" d="M30 0v48h73v414h-87v52h150v-466h65v-48h-201z"/>
<glyph glyph-name="two" horiz-adv-x="428" unicode="2" d="M18 0v34l171 158q32 30 47 45t37 41t31 49t9 47q1 46 -27 70t-72 24q-42 0 -72 -26t-44 -71l-55 19q19 62 65 97t106 35q70 0 116 -40t46 -110q0 -88 -140 -211l-124 -109h223v76h52v-128h-369z"/>
<glyph glyph-name="three" horiz-adv-x="440" unicode="3" d="M50 397v117h328v-37l-144 -155q74 -2 122 -45t47 -115q0 -76 -52 -123t-139 -47q-68 0 -120 34t-74 85l55 27q44 -92 139 -92q58 0 92 30t35 87q0 55 -36 85t-93 31q-42 0 -80 -17l-7 11l174 191h-195v-67h-52z"/>
<glyph glyph-name="four" horiz-adv-x="456" unicode="4" d="M296 169v244l-200 -244h200zM223 0v48h73v71h-277v37l300 358h38v-345h70v-50h-70v-71h67v-48h-201z"/>
<glyph glyph-name="five" horiz-adv-x="429" unicode="5" d="M303 404v59h-185v-150q39 24 90 24q81 0 132 -48t51 -124q0 -77 -50 -125t-137 -48q-64 0 -112 28t-70 70l53 29q37 -74 129 -74q56 1 90 33t33 87q0 55 -35 87t-95 32q-73 0 -123 -46l-11 5v271h292v-110h-52z"/>
<glyph glyph-name="six" horiz-adv-x="440" unicode="6" d="M221 45q53 1 87 35t34 87q0 54 -33 89t-87 35q-54 1 -88 -35t-34 -89t33 -87t88 -35zM221 -8q-79 0 -132 49t-53 126q0 65 59 146l145 201h68l-138 -191q26 17 64 17q72 0 122 -49t50 -124t-53 -125t-132 -50z"/>
<glyph glyph-name="seven" horiz-adv-x="412" unicode="7" d="M27 397v117h363v-37l-249 -477h-65l243 463h-240v-66h-52z"/>
<glyph glyph-name="eight" horiz-adv-x="426" unicode="8" d="M212 310q38 0 62 23t24 58q0 34 -24 57t-62 23q-36 0 -60 -23t-25 -57q0 -35 24 -58t61 -23zM212 44q52 0 85 30t33 79t-32 79t-86 30q-53 0 -85 -30t-32 -79q1 -49 33 -79t84 -30zM212 -8q-79 0 -130 44t-51 112q1 50 29 86t75 52q-71 33 -71 106q0 54 42 92t106 38 q66 0 107 -38t41 -92q0 -72 -71 -106q49 -17 77 -53t28 -85q0 -68 -51 -112t-131 -44z"/>
<glyph glyph-name="nine" horiz-adv-x="441" unicode="9" d="M219 469q-53 -1 -87 -35t-33 -87q0 -55 33 -89t87 -35q55 0 89 36t33 88q0 54 -34 88t-88 34zM219 522q79 0 133 -49t53 -126q0 -64 -59 -147l-145 -200h-68l138 191q-26 -18 -64 -18q-73 -1 -123 49t-49 124q0 76 53 126t131 50z"/>
<glyph glyph-name="colon" horiz-adv-x="181" unicode=":" d="M90 -6q-19 0 -33 14t-14 33t14 33t33 14t33 -14t14 -33t-14 -33t-33 -14zM90 210q-19 0 -33 14t-14 33t14 33t33 14t33 -14t14 -33t-14 -33t-33 -14z"/>
<glyph glyph-name="semicolon" horiz-adv-x="182" unicode=";" d="M46 -82l25 80q-28 11 -28 43q0 19 14 33t33 14t33 -14t14 -33q0 -16 -13 -38l-43 -85h-35zM90 210q-19 0 -33 14t-14 33t14 33t33 14t33 -14t14 -33t-14 -33t-33 -14z"/>
<glyph glyph-name="less" horiz-adv-x="317" unicode="&lt;" d="M280 104l-251 137v6l251 135v-58l-154 -81l154 -81v-58z"/>
<glyph glyph-name="equal" horiz-adv-x="334" unicode="=" d="M38 166v52h258v-52h-258zM38 280v53h258v-53h-258z"/>
<glyph glyph-name="greater" horiz-adv-x="317" unicode="&gt;" d="M37 104v58l155 81l-155 81v58l251 -137v-6z"/>
<glyph glyph-name="question" horiz-adv-x="443" unicode="?" d="M196 -6q-19 0 -33 14t-14 33t14 33t33 14t33 -14t14 -33t-14 -33t-33 -14zM167 180v190h29q66 0 102 38t37 96q-1 58 -35 94t-90 36q-91 0 -137 -89l-49 28q26 51 74 83t111 32q87 0 139 -52t53 -133q0 -76 -47 -127t-127 -58v-138h-60z"/>
<glyph glyph-name="at" horiz-adv-x="742" unicode="@" d="M363 42q44 0 71 32t27 80q0 50 -27 82t-71 33q-43 -1 -69 -33t-27 -82q1 -48 27 -80t69 -32zM381 -179q-149 0 -247 97t-98 242q0 144 98 242t240 97q145 0 239 -92t94 -228q0 -91 -37 -141t-95 -50q-81 0 -103 79q-36 -75 -119 -75q-64 0 -107 46t-43 116q-1 70 43 118 t107 47q73 0 108 -66l-1 58h62v-207q0 -68 54 -68q33 0 54 36t21 106q1 120 -75 196t-203 76q-122 0 -200 -83t-78 -207q0 -126 79 -208t205 -82q79 0 140 35l25 -44q-68 -40 -163 -40z"/>
<glyph glyph-name="A" d="M329 617l-135 -379h269zM651 48v-48h-186v48h65l-49 135h-305l-50 -135h66v-48h-181v48h52l213 584h-49v48h208v-48h-50l213 -584h53z" unicode="A"/>
<glyph glyph-name="B" horiz-adv-x="591" unicode="B" d="M159 377h168q63 0 95 34t31 92q0 57 -34 91t-102 34h-158v-251zM159 51h172q76 -1 115 37t39 102q0 65 -41 102t-118 37h-167v-278zM33 632v48h290q94 0 144 -48t50 -125q0 -120 -106 -151q140 -33 140 -169q0 -83 -56 -135t-158 -52h-304v48h61v584h-61z"/>
<glyph glyph-name="C" horiz-adv-x="706" unicode="C" d="M39 340q1 151 99 250t243 99q147 0 212 -93v84h54v-190h-49q-17 69 -75 105t-138 36q-121 0 -199 -83t-78 -208q0 -126 80 -208t199 -83q147 0 232 115l50 -36q-102 -136 -283 -136q-147 0 -247 99t-100 249z"/>
<glyph glyph-name="D" horiz-adv-x="660" unicode="D" d="M160 54h98q146 0 222 78t75 208q1 130 -75 208t-222 78h-98v-572zM33 632v48h231q166 0 262 -94t97 -246q0 -152 -96 -246t-263 -94h-231v48h61v584h-61z"/>
<glyph glyph-name="E" horiz-adv-x="562" unicode="E" d="M452 532v94h-292v-258h273v-52h-273v-262h306v94h53v-148h-486v48h61v584h-61v48h472v-148h-53z"/>
<glyph glyph-name="F" horiz-adv-x="536" unicode="F" d="M452 532v94h-292v-278h279v-52h-279v-248h66v-48h-193v48h61v584h-61v48h472v-148h-53z"/>
<glyph glyph-name="G" horiz-adv-x="725" unicode="G" d="M606 0v75q-83 -83 -222 -83q-144 0 -244 96t-100 252q0 148 100 248t242 100q143 0 206 -86v78h54v-175h-51q-38 125 -205 125q-122 0 -200 -82t-78 -208q0 -127 80 -209t202 -82q131 0 213 82v143h-205v52h267v-326h-59z"/>
<glyph glyph-name="H" horiz-adv-x="689" unicode="H" d="M33 632v48h192v-48h-65v-268h370v268h-66v48h192v-48h-61v-584h61v-48h-192v48h66v265h-370v-265h65v-48h-192v48h61v584h-61z"/>
<glyph glyph-name="I" horiz-adv-x="255" unicode="I" d="M34 632v48h187v-48h-61v-584h61v-48h-187v48h61v584h-61z"/>
<glyph glyph-name="J" horiz-adv-x="461" unicode="J" d="M238 632v48h193v-48h-60v-459q0 -89 -49 -135t-129 -46q-118 0 -174 101l54 32q41 -76 118 -76q114 0 114 126v457h-67z"/>
<glyph glyph-name="K" horiz-adv-x="608" unicode="K" d="M33 632v48h188v-48h-61v-330l273 330h-58v48h185v-48h-56l-206 -247l239 -337h51v-48h-187v48h59l-204 289l-96 -114v-175h61v-48h-188v48h61v584h-61z"/>
<glyph glyph-name="L" horiz-adv-x="508" unicode="L" d="M33 632v48h188v-48h-61v-578h268v94h54v-148h-449v48h61v584h-61z"/>
<glyph glyph-name="M" horiz-adv-x="823" unicode="M" d="M789 48v-48h-194v48h69v530l-241 -372h-27l-241 376v-534h70v-48h-190v48h61v584h-63v48h130l248 -387l249 387h131v-48h-63v-584h61z"/>
<glyph glyph-name="N" horiz-adv-x="710" unicode="N" d="M680 680v-48h-61v-632h-43l-422 586v-538h67v-48h-188v48h61v584h-61v48h127l399 -555v507h-68v48h189z"/>
<glyph glyph-name="O" horiz-adv-x="776" unicode="O" d="M388 49q121 0 201 83t80 208t-80 208t-201 83t-201 -83t-80 -208t80 -208t201 -83zM388 -8q-146 0 -248 100t-101 248q-1 148 101 248t248 100t248 -100t102 -248t-102 -248t-248 -100z"/>
<glyph glyph-name="P" horiz-adv-x="549" unicode="P" d="M160 323h127q81 1 123 41t43 111q-1 71 -43 112t-123 41h-127v-305zM33 632v48h260q107 0 167 -57t61 -148q0 -91 -60 -147t-168 -57h-133v-223h70v-48h-197v48h61v584h-61z"/>
<glyph glyph-name="Q" horiz-adv-x="788" unicode="Q" d="M388 -8q-146 0 -248 100t-101 248q-1 148 101 248t248 100t248 -100t102 -248q0 -146 -102 -250l39 -42h81v-48h-116l-51 54q-87 -62 -201 -62zM388 49q91 0 161 48l-95 102l45 38l95 -102q76 82 76 205q0 125 -80 208t-202 83q-121 0 -201 -83t-80 -208t80 -208t201 -83 z"/>
<glyph glyph-name="R" horiz-adv-x="604" unicode="R" d="M160 331h128q84 1 126 39t42 108t-42 110t-126 40h-128v-297zM482 0l-173 279h-149v-231h70v-48h-197v48h61v584h-61v48h264q107 0 167 -57t60 -146q0 -69 -38 -119t-111 -68l151 -242h63v-48h-107z"/>
<glyph glyph-name="S" horiz-adv-x="518" unicode="S" d="M271 -8q-61 0 -109 25t-72 65v-82h-54v198h50q9 -68 57 -109t123 -41q67 0 107 34t40 88q0 52 -30 81t-99 61l-55 26q-83 39 -122 79t-39 109q0 72 50 117t127 45q95 0 142 -69v61h54v-165h-51q-12 57 -48 87t-90 31q-52 1 -86 -29t-34 -74q0 -45 28 -72t94 -59l55 -26 q92 -43 131 -85t39 -118q0 -82 -58 -130t-150 -48z"/>
<glyph glyph-name="T" horiz-adv-x="566" unicode="T" d="M486 532v94h-170v-578h66v-48h-197v48h66v578h-170v-94h-54v148h512v-148h-53z"/>
<glyph glyph-name="U" horiz-adv-x="663" unicode="U" d="M633 680v-48h-61v-401q0 -115 -67 -177t-174 -62t-173 62t-67 177v401h-61v48h192v-48h-65v-397q1 -91 47 -139t127 -48q83 0 129 48t46 139v397h-65v48h192z"/>
<glyph glyph-name="V" d="M648 680v-48h-50l-245 -632h-40l-249 632h-51v48h187v-48h-68l202 -531l202 531h-72v48h184z" unicode="V"/>
<glyph glyph-name="W" horiz-adv-x="965" unicode="W" d="M954 680v-48h-51l-190 -632h-40l-191 563l-190 -563h-39l-191 632h-51v48h183v-48h-65l148 -505l188 553h39l188 -556l148 508h-71v48h185z"/>
<glyph glyph-name="X" horiz-adv-x="628" unicode="X" d="M416 0v48h68l-175 272l-174 -272h68v-48h-189v48h57l206 319l-171 265h-58v48h192v-48h-60l138 -214l136 214h-61v48h184v-48h-59l-168 -261l207 -323h57v-48h-198z"/>
<glyph glyph-name="Y" horiz-adv-x="614" unicode="Y" d="M214 0v48h61v224l-209 360h-52v48h191v-48h-68l173 -300l174 300h-70v48h186v-48h-52l-207 -358v-226h61v-48h-188z"/>
<glyph glyph-name="Z" horiz-adv-x="580" unicode="Z" d="M68 532v148h463v-35l-413 -591h368v94h53v-148h-507v36l412 590h-323v-94h-53z"/>
<glyph glyph-name="bracketleft" horiz-adv-x="283" unicode="[" d="M82 -128v838h168v-50h-104v-738h104v-50h-168z"/>
<glyph glyph-name="backslash" horiz-adv-x="400" unicode="\" d="M322 -128l-300 838h63l300 -838h-63z"/>
<glyph glyph-name="bracketright" horiz-adv-x="283" unicode="]" d="M33 -128v50h104v738h-104v50h168v-838h-168z"/>
<glyph glyph-name="asciicircum" horiz-adv-x="372" unicode="^" d="M186 602l-106 -167h-62l166 259h5l165 -259h-62z"/>
<glyph glyph-name="underscore" horiz-adv-x="254" unicode="_" d="M-2 -128v55h258v-55h-258z"/>
<glyph glyph-name="grave" horiz-adv-x="500" unicode="`" d="M228 396l-76 141h69l56 -141h-49z"/>
<glyph glyph-name="a" horiz-adv-x="380" unicode="a" d="M256 154h-94q-34 0 -55 -14t-21 -42q0 -58 78 -58q38 0 65 20t27 53v41zM256 195v6q0 86 -81 86q-57 0 -90 -47l-39 32q50 65 135 65q63 0 99 -34t36 -101v-155h50v-47h-110v42q-34 -50 -106 -50q-53 0 -88 27t-35 79q1 48 37 72t93 25h99z"/>
<glyph glyph-name="b" horiz-adv-x="438" unicode="b" d="M235 42q50 0 81 34t31 88q0 55 -31 89t-81 34q-51 0 -81 -34t-30 -89q0 -54 30 -88t81 -34zM16 661v49h111v-439q35 66 120 66q69 1 115 -49t47 -124q-1 -72 -47 -122t-115 -50q-84 0 -120 65v-57h-111v47h51v614h-51z"/>
<glyph glyph-name="c" horiz-adv-x="367" unicode="c" d="M195 337q60 0 88 -39v31h48v-106h-46q-15 65 -84 65q-51 0 -82 -35t-31 -89q0 -51 32 -86t81 -35q61 0 96 42l39 -35q-49 -58 -137 -58q-75 0 -123 49t-48 123t48 124t119 49z"/>
<glyph glyph-name="d" horiz-adv-x="436" unicode="d" d="M203 287q-50 0 -81 -34t-31 -89q0 -54 31 -88t81 -34q51 0 81 34t30 88q0 55 -30 89t-81 34zM312 0v60q-36 -68 -121 -68q-71 0 -117 49t-45 123q0 74 47 124t117 49q83 0 119 -68v392h-52v49h111v-663h49v-47h-108z"/>
<glyph glyph-name="e" horiz-adv-x="395" unicode="e" d="M91 190h214q-7 42 -33 70t-72 28q-43 0 -73 -27t-36 -71zM91 147q2 -48 35 -77t83 -29q63 0 103 44l36 -35q-48 -58 -144 -58q-77 0 -126 49t-49 123q-1 74 49 124t122 49q77 1 123 -53q44 -51 44 -130v-7h-276z"/>
<glyph glyph-name="f" horiz-adv-x="225" unicode="f" d="M18 0v47h43v233h-43v49h43v282q1 51 27 79t70 28q50 0 77 -35l-34 -35q-16 21 -40 21q-40 0 -40 -54v-286h80v-49h-80v-233h63v-47h-166z"/>
<glyph glyph-name="g" horiz-adv-x="365" unicode="g" d="M181 -175q54 0 86 20t32 58q1 36 -29 53t-98 17q-111 0 -111 -73q0 -37 32 -56t88 -19zM177 125q36 0 58 23t22 60q0 38 -22 61t-58 23q-35 0 -57 -24t-22 -60q0 -37 22 -60t57 -23zM227 329h119v-45h-66q32 -30 32 -76q0 -56 -39 -92t-96 -36q-37 0 -65 15 q-25 -8 -25 -29q0 -20 19 -28t82 -11q169 -8 169 -119q-1 -59 -49 -95t-129 -36q-77 1 -125 33t-48 87q0 75 85 98q-54 13 -54 64q0 43 46 58q-40 38 -40 91q1 56 39 92t95 37q26 0 50 -8z"/>
<glyph glyph-name="h" horiz-adv-x="432" unicode="h" d="M255 0v47h51v152q0 87 -81 87q-44 0 -71 -28t-27 -73v-138h51v-47h-162v47h51v614h-51v49h111v-437q36 64 114 64q57 0 91 -35t34 -100v-155h51v-47h-162z"/>
<glyph glyph-name="i" horiz-adv-x="193" unicode="i" d="M97 420q-17 0 -29 12t-12 29q0 18 12 30t29 12t29 -12t13 -30q-1 -17 -13 -29t-29 -12zM16 280v49h111v-282h51v-47h-162v47h51v233h-51z"/>
<glyph glyph-name="j" horiz-adv-x="182" unicode="j" d="M97 420q-17 0 -29 12t-12 29q0 18 12 30t29 12t29 -12t13 -30q-1 -17 -13 -29t-29 -12zM17 280v49h110v-450q1 -48 -23 -74t-68 -26q-40 0 -66 26l30 38q14 -14 31 -14q37 0 37 46v405h-51z"/>
<glyph glyph-name="k" horiz-adv-x="383" unicode="k" d="M222 0v47h39l-82 102l-52 -50v-52h41v-47h-152v47h51v614h-51v49h111v-551l130 123h-49v47h161v-49h-47l-102 -95l111 -138h41v-47h-150z"/>
<glyph glyph-name="l" horiz-adv-x="194" unicode="l" d="M16 661v49h111v-663h51v-47h-162v47h51v614h-51z"/>
<glyph glyph-name="m" horiz-adv-x="626" unicode="m" d="M234 0v47h49v158q0 81 -71 81q-40 0 -62 -25t-23 -69v-145h49v-47h-160v47h51v233h-51v49h110v-50q28 58 101 58q71 0 101 -64q36 64 112 64q54 0 87 -34t33 -93v-163h51v-47h-160v47h49v159q0 40 -18 60t-53 20q-40 0 -63 -24t-23 -68v-147h49v-47h-158z"/>
<glyph glyph-name="n" horiz-adv-x="432" unicode="n" d="M255 0v47h51v152q0 87 -80 87q-45 0 -72 -28t-27 -73v-138h51v-47h-162v47h51v233h-51v49h111v-56q32 64 114 64q57 0 91 -35t34 -100v-155h51v-47h-162z"/>
<glyph glyph-name="o" horiz-adv-x="406" unicode="o" d="M203 41q49 0 81 35t32 88q0 54 -32 89t-81 35t-81 -35t-31 -89q-1 -54 31 -88t81 -35zM203 -8q-73 0 -123 50t-51 122q1 74 51 124t123 49q75 1 125 -49t50 -124q0 -72 -50 -122t-125 -50z"/>
<glyph glyph-name="p" horiz-adv-x="438" unicode="p" d="M236 42q50 0 81 34t31 88q0 55 -31 89t-81 34t-80 -34t-31 -89q1 -54 31 -88t80 -34zM16 280v49h112v-58q37 66 120 66q70 1 116 -49t46 -124q0 -72 -46 -122t-116 -50q-84 0 -120 64v-222h55v-46h-167v46h52v446h-52z"/>
<glyph glyph-name="q" horiz-adv-x="438" unicode="q" d="M202 287q-50 0 -81 -34t-31 -89q0 -54 31 -88t81 -34t81 34t31 88q0 55 -31 89t-81 34zM417 -166v-46h-166v46h60v226q-36 -68 -120 -68q-69 0 -116 49t-47 123t47 124t117 49q83 0 119 -68v60h111v-49h-52v-446h47z"/>
<glyph glyph-name="r" horiz-adv-x="283" unicode="r" d="M16 280v49h111v-61q28 69 97 69q29 0 51 -13l-20 -50q-15 11 -44 11q-35 0 -59 -28t-25 -75v-135h54v-47h-165v47h51v233h-51z"/>
<glyph glyph-name="s" horiz-adv-x="316" unicode="s" d="M267 233h-43q-12 58 -72 58q-26 0 -41 -11t-15 -30q0 -20 17 -31t60 -22q57 -16 85 -40t28 -65q0 -46 -33 -73t-85 -27q-73 0 -100 42v-34h-44v108h44q13 -70 91 -70q32 0 50 12t18 36q0 22 -18 34t-63 25q-54 15 -80 38t-26 62q0 41 30 67t74 25q56 0 77 -36v28h46v-96z "/>
<glyph glyph-name="t" horiz-adv-x="234" unicode="t" d="M58 280h-44v49h44v127h60v-127h82v-49h-82v-197q0 -42 35 -42q22 0 38 16l25 -41q-27 -24 -70 -24q-88 0 -88 92v196z"/>
<glyph glyph-name="u" horiz-adv-x="425" unicode="u" d="M246 280v49h112v-282h51v-47h-111v59q-12 -31 -44 -49t-69 -18q-59 0 -93 34t-33 101v153h-50v49h110v-197q0 -89 80 -89q45 -1 72 27t27 76v134h-52z"/>
<glyph glyph-name="v" horiz-adv-x="381" unicode="v" d="M235 280v49h140v-49h-38l-131 -281h-27l-136 281h-37v49h145v-49h-46l90 -194l87 194h-47z"/>
<glyph glyph-name="w" horiz-adv-x="554" unicode="w" d="M545 329v-49h-36l-105 -280h-29l-97 230l-96 -230h-32l-105 280h-36v49h146v-49h-48l65 -183l96 232h24l98 -231l63 182h-43v49h135z"/>
<glyph glyph-name="x" horiz-adv-x="387" unicode="x" d="M357 329v-49h-43l-81 -107l97 -126h44v-47h-156v44h44l-73 97l-73 -97h45v-44h-147v47h44l98 129l-81 104h-40v49h145v-46h-40l60 -77l58 77h-39v46h138z"/>
<glyph glyph-name="y" horiz-adv-x="379" unicode="y" d="M6 280v49h146v-49h-45l90 -194l82 194h-47v49h141v-49h-38l-194 -443h51v-49h-156v49h49l82 187l-123 256h-38z"/>
<glyph glyph-name="z" horiz-adv-x="333" unicode="z" d="M36 225v104h268v-28l-202 -256h158v66h47v-111h-284v27l203 256h-143v-58h-47z"/>
<glyph glyph-name="braceleft" horiz-adv-x="322" unicode="{" d="M255 -128q-128 0 -128 141v181q0 38 -14 53t-43 15h-46v51h46q29 0 43 15t14 53v188q0 141 128 141h36v-50h-34q-33 0 -49 -19t-17 -67v-197q-1 -43 -17 -63t-48 -26q65 -12 65 -89v-191q1 -48 17 -67t49 -19h34v-50h-36z"/>
<glyph glyph-name="bar" horiz-adv-x="237" unicode="|" d="M87 -128v838h63v-838h-63z"/>
<glyph glyph-name="braceright" horiz-adv-x="322" unicode="}" d="M67 710q128 0 128 -141v-188q-1 -38 13 -53t43 -15h47v-51h-47q-29 0 -43 -15t-13 -53v-181q0 -141 -128 -141h-36v50h33q34 0 50 19t17 67v190q1 43 17 63t48 26q-65 12 -65 89v198q-1 48 -17 67t-50 19h-33v50h36z"/>
<glyph glyph-name="asciitilde" horiz-adv-x="342" unicode="~" d="M224 222q-24 0 -57 20t-46 19q-24 0 -33 -37l-50 7q6 41 28 64t53 23q25 0 57 -20t45 -19q23 0 34 37l49 -7q-7 -39 -28 -63t-52 -24z"/>
<glyph glyph-name="uni00A0" horiz-adv-x="182" unicode=" "/>
<glyph glyph-name="exclamdown" horiz-adv-x="215" unicode="¡" d="M73 0l7 498h55l7 -498h-69zM107 592q-19 0 -33 14t-14 33t14 33t33 14t33 -14t14 -33t-14 -33t-33 -14z"/>
<glyph glyph-name="cent" horiz-adv-x="367" unicode="¢" d="M89 164q0 -42 23 -74t61 -43v235q-38 -10 -61 -42t-23 -76zM173 -106v100q-63 8 -103 56t-41 114q0 66 41 114t103 57v97h49v-98q43 -5 65 -35v30h46v-106h-42q-15 57 -69 63v-243q48 6 78 41l40 -34q-45 -51 -118 -58v-98h-49z"/>
<glyph glyph-name="sterling" horiz-adv-x="463" unicode="£" d="M446 49q-50 -57 -124 -57q-61 0 -124 55q-31 -55 -92 -55q-39 0 -64 22t-25 56t24 55t61 21q32 0 61 -18q-6 38 -34 100h-82v50h55q-21 51 -21 95q0 63 45 106t118 43q85 0 118 -60v52h52v-150h-50q-6 46 -36 74t-77 28q-49 0 -77 -26t-28 -72q0 -41 21 -90h157v-50h-134 q29 -70 29 -123q-1 -3 -1 -7v-4q2 0 9 -6t9 -8t10 -6q7 -4 10 -6l9 -6t10 -4q5 -2 11 -4t11 -3t11 -2t12 -1q48 0 86 41zM159 79q-27 25 -53 25q-18 0 -28 -9t-10 -25q0 -35 39 -35q21 0 35 13t17 31z"/>
<glyph glyph-name="yen" horiz-adv-x="502" unicode="¥" d="M15 514h163v-49h-49l125 -219l124 219h-50v49h158v-49h-45l-89 -152h96v-45h-122l-39 -67h161v-44h-165v-109h60v-48h-187v48h63v109h-168v44h164l-39 67h-125v45h99l-89 152h-46v49z"/>
<glyph glyph-name="section" horiz-adv-x="487" unicode="§" d="M348 24q52 20 52 73q0 31 -18 51t-62 37l-117 42q-49 20 -74 43q-42 -24 -42 -75q-1 -34 17 -54t59 -36l112 -42q49 -20 73 -39zM100 -155v-55h-52v151h44q12 -51 53 -79t98 -28q47 0 74 22t27 59q0 31 -20 51t-68 39l-110 42q-60 23 -90 57t-30 85q0 73 74 112 q-22 35 -22 77q0 64 44 104t114 40q44 0 76 -16t46 -45v51h53v-146h-46q-8 47 -40 76t-85 29q-46 0 -73 -25t-27 -63q0 -37 19 -58t63 -38l117 -44q122 -47 122 -141q0 -77 -79 -108q27 -35 27 -78q0 -59 -43 -97t-118 -38q-100 0 -148 64z"/>
<glyph glyph-name="dieresis" horiz-adv-x="500" unicode="¨" d="M185 422q-15 0 -27 11t-12 27q0 17 12 28t27 11t27 -11t12 -28q0 -16 -12 -27t-27 -11zM315 422q-15 0 -27 11t-12 27q0 17 12 28t27 11t27 -11t12 -28q0 -16 -12 -27t-27 -11z"/>
<glyph glyph-name="copyright" horiz-adv-x="606" unicode="©" d="M392 185l39 -35q-48 -56 -129 -56q-68 0 -114 46t-47 119q1 69 47 115t110 46q30 0 54 -10t32 -26v28h44v-107h-42q-11 66 -82 66q-46 0 -74 -31t-28 -82q0 -49 28 -81t73 -32q54 0 89 40zM303 30q95 0 160 65t65 162q0 99 -65 163t-160 64t-160 -64t-65 -163 q0 -97 65 -162t160 -65zM303 -7q-109 -1 -187 75t-78 189t78 189t187 76t187 -76t78 -189t-78 -189t-187 -75z"/>
<glyph glyph-name="ordfeminine" horiz-adv-x="346" unicode="ª" d="M237 355h-85q-67 0 -67 -49q0 -50 69 -50q34 0 58 18t25 46v35zM237 394v6q-1 41 -19 58t-55 17q-49 0 -82 -42l-34 29q44 60 121 60q58 0 92 -30t33 -91v-139h44v-44h-101v38q-31 -45 -95 -45q-49 1 -81 25t-31 70q-1 44 33 66t85 22h90z"/>
<glyph glyph-name="guillemotleft" horiz-adv-x="337" unicode="«" d="M223 164l79 -132h-61l-79 130v4l79 128h61zM93 164l79 -132h-62l-78 130v4l78 128h62z"/>
<glyph glyph-name="registered" horiz-adv-x="380" unicode="®" d="M165 536h24q33 0 33 31q0 29 -33 29h-24v-60zM129 471v125h-17v27h80q32 1 50 -15t18 -41q0 -36 -35 -51l27 -45h18v-27h-41l-38 67h-26v-40h14v-27h-67v27h17zM189 402q57 0 94 36t37 93q0 59 -37 95t-94 36t-93 -36t-36 -95q0 -57 36 -93t93 -36zM189 375 q-66 1 -112 45t-46 111t46 112t112 45q67 0 113 -45t47 -112q-1 -67 -47 -111t-113 -45z"/>
<glyph glyph-name="macron" horiz-adv-x="500" unicode="¯" d="M159 436v48h182v-48h-182z"/>
<glyph glyph-name="degree" horiz-adv-x="301" unicode="°" d="M151 352q27 0 44 18t17 46t-17 46t-44 18t-45 -18t-17 -46q-1 -28 17 -46t45 -18zM151 311q-44 0 -76 31t-32 74q-1 44 31 74t77 30t76 -30t31 -74q0 -43 -32 -74t-75 -31z"/>
<glyph glyph-name="two.superior" horiz-adv-x="261" unicode="²" d="M17 398v21l93 89q26 25 36 35t21 27t11 32q0 21 -14 33t-35 12q-43 0 -59 -49l-44 13q23 76 104 76q46 -1 72 -23t26 -61q0 -21 -16 -45t-26 -36q-11 -11 -42 -39l-52 -47h109v38h38v-76h-222z"/>
<glyph glyph-name="three.superior" horiz-adv-x="263" unicode="³" d="M20 456l40 21q24 -47 70 -47q26 0 44 16t18 45t-18 45t-47 15q-22 0 -40 -9l-5 10l82 90h-95v-39h-38v77h197v-20l-72 -80q37 -3 61 -27t24 -62q0 -45 -29 -73t-80 -28q-82 0 -112 66z"/>
<glyph glyph-name="acute" horiz-adv-x="500" unicode="´" d="M223 396l56 141h69l-76 -141h-49z"/>
<glyph glyph-name="paragraph" horiz-adv-x="494" unicode="¶" d="M230 366h-21q-75 0 -121 46t-46 111q0 67 46 112t121 45h214v-680h-59v627h-75v-627h-59v366z"/>
<glyph glyph-name="periodcentered" horiz-adv-x="174" unicode="·" d="M87 169q-19 -1 -33 13t-14 34t14 34t33 13q19 1 33 -13t14 -34t-14 -34t-33 -13z"/>
<glyph glyph-name="cedilla" horiz-adv-x="500" unicode="¸" d="M253 -192q-60 0 -82 46l35 21q12 -27 43 -27q34 0 34 33q0 36 -41 36h-17v83h39v-50q28 -3 46 -22t18 -50q0 -32 -22 -51t-53 -19z"/>
<glyph glyph-name="one.superior" horiz-adv-x="239" unicode="¹" d="M42 398v39h55v202h-59v41h107v-243h53v-39h-156z"/>
<glyph glyph-name="ordmasculine" horiz-adv-x="372" unicode="º" d="M186 255q45 -1 73 31t28 80t-28 79t-73 31q-44 0 -72 -31t-28 -79t28 -80t72 -31zM186 211q-66 1 -112 45t-45 110q-1 66 45 111t112 45t112 -45t46 -111t-46 -110t-112 -45z"/>
<glyph glyph-name="guillemotright" horiz-adv-x="337" unicode="»" d="M35 32l79 130l-79 132h61l79 -130v-4l-79 -128h-61zM165 32l79 130l-79 132h62l78 -130v-4l-78 -128h-62z"/>
<glyph glyph-name="onequarter" horiz-adv-x="350" unicode="¼" d="M98 398v39h55v202h-59v41h107v-243h53v-39h-156zM204 98v119l-96 -119h96zM31 320v41h286v-41h-286zM166 37h37v24h-155v26l172 202h30v-190h40v-38h-40v-24h35v-37h-119v37z"/>
<glyph glyph-name="onehalf" horiz-adv-x="340" unicode="½" d="M89 398v39h55v202h-59v41h107v-243h53v-39h-156zM58 1v21l93 89q26 25 36 35t21 27t11 32q1 21 -13 33t-36 12q-43 0 -59 -49l-44 13q23 76 104 76q45 0 71 -22t27 -62q1 -22 -15 -46t-27 -35t-42 -39l-52 -47h109v38h38v-76h-222zM32 320v41h276v-41h-276z"/>
<glyph glyph-name="threequarters" horiz-adv-x="350" unicode="¾" d="M60 456l40 21q24 -47 70 -47q26 0 44 16t18 45t-18 45t-47 15q-22 0 -40 -9l-5 10l82 90h-95v-39h-38v77h197v-20l-72 -80q37 -3 61 -27t24 -62q0 -45 -29 -73t-80 -28q-82 0 -112 66zM204 98v119l-96 -119h96zM28 320v41h295v-41h-295zM166 37h37v24h-155v26l172 202h30 v-190h40v-38h-40v-24h35v-37h-119v37z"/>
<glyph glyph-name="questiondown" horiz-adv-x="444" unicode="¿" d="M247 686q19 0 33 -14t14 -33t-14 -33t-33 -14t-33 14t-14 33t14 33t33 14zM277 501v-191h-30q-65 0 -101 -38t-37 -96q0 -58 34 -94t91 -36q91 0 137 89l48 -28q-26 -51 -73 -83t-111 -32q-87 0 -139 52t-53 133q0 76 47 127t127 58v139h60z"/>
<glyph glyph-name="Agrave" d="M304 725l-76 141h69l56 -141h-49zM329 617l-135 -379h269zM651 48v-48h-186v48h65l-49 135h-305l-50 -135h66v-48h-181v48h52l213 584h-49v48h208v-48h-50l213 -584h53z" unicode="À"/>
<glyph glyph-name="Aacute" d="M301 725l56 141h69l-76 -141h-49zM329 617l-135 -379h269zM651 48v-48h-186v48h65l-49 135h-305l-50 -135h66v-48h-181v48h52l213 584h-49v48h208v-48h-50l213 -584h53z" unicode="Á"/>
<glyph glyph-name="Acircumflex" d="M219 728l109 130h3l109 -130h-50l-60 58l-61 -58h-50zM329 617l-135 -379h269zM651 48v-48h-186v48h65l-49 135h-305l-50 -135h66v-48h-181v48h52l213 584h-49v48h208v-48h-50l213 -584h53z" unicode="Â"/>
<glyph glyph-name="Atilde" d="M374 727q-22 0 -49 18t-38 18q-19 0 -28 -34l-44 6q13 80 69 80q22 0 49 -18t38 -18q19 0 28 34l44 -6q-13 -80 -69 -80zM329 617l-135 -379h269zM651 48v-48h-186v48h65l-49 135h-305l-50 -135h66v-48h-181v48h52l213 584h-49v48h208v-48h-50l213 -584h53z" unicode="Ã"/>
<glyph glyph-name="Adieresis" d="M264 734q-15 0 -27 11t-12 27q-1 17 11 28t28 11t28 -11t11 -28q0 -16 -12 -27t-27 -11zM394 734q-15 0 -27 11t-12 27q-1 17 11 28t28 11t28 -11t11 -28q0 -16 -12 -27t-27 -11zM329 617l-135 -379h269zM651 48v-48h-186v48h65l-49 135h-305l-50 -135h66v-48h-181v48h52 l213 584h-49v48h208v-48h-50l213 -584h53z" unicode="Ä"/>
<glyph glyph-name="Aring" d="M329 750q18 0 29 12t11 30q1 18 -11 30t-29 12t-29 -12t-11 -30q0 -18 11 -30t29 -12zM329 713q-34 -1 -58 23t-24 56t24 56t58 24t58 -24t24 -56t-24 -56t-58 -23zM329 617l-135 -379h269zM651 48v-48h-186v48h65l-49 135h-305l-50 -135h66v-48h-181v48h52l213 584h-49 v48h208v-48h-50l213 -584h53z" unicode="Å"/>
<glyph glyph-name="AE" horiz-adv-x="940" unicode="Æ" d="M238 225h235v377zM831 532v92h-293v-256h294v-52h-294v-260h307v92h53v-148h-486v48h61v126h-266l-80 -126h73v-48h-190v48h54l365 584h-64v48h519v-148h-53z"/>
<glyph glyph-name="Ccedilla" horiz-adv-x="706" unicode="Ç" d="M376 -192q-60 0 -82 46l35 21q12 -27 43 -27q34 0 34 33q0 36 -41 36h-17v77q-134 14 -222 110t-87 236q1 151 99 250t243 99q147 0 212 -93v84h54v-190h-49q-17 69 -75 105t-138 36q-121 0 -199 -83t-78 -208q0 -126 80 -208t199 -83q147 0 232 115l50 -36 q-101 -135 -282 -136v-42q28 -3 46 -22t18 -50q-1 -32 -23 -51t-52 -19z"/>
<glyph glyph-name="Egrave" horiz-adv-x="562" unicode="È" d="M262 725l-76 141h69l56 -141h-49zM452 532v94h-292v-258h273v-52h-273v-262h306v94h53v-148h-486v48h61v584h-61v48h472v-148h-53z"/>
<glyph glyph-name="Eacute" horiz-adv-x="562" unicode="É" d="M452 532v94h-292v-258h273v-52h-273v-262h306v94h53v-148h-486v48h61v584h-61v48h472v-148h-53zM254 725l56 141h69l-76 -141h-49z"/>
<glyph glyph-name="Ecircumflex" horiz-adv-x="562" unicode="Ê" d="M452 532v94h-292v-258h273v-52h-273v-262h306v94h53v-148h-486v48h61v584h-61v48h472v-148h-53zM176 728l109 130h3l109 -130h-50l-60 58l-61 -58h-50z"/>
<glyph glyph-name="Edieresis" horiz-adv-x="562" unicode="Ë" d="M452 532v94h-292v-258h273v-52h-273v-262h306v94h53v-148h-486v48h61v584h-61v48h472v-148h-53zM222 734q-15 0 -27 11t-12 27q-1 17 11 28t28 11t28 -11t11 -28q0 -16 -12 -27t-27 -11zM352 734q-15 0 -27 11t-12 27q-1 17 11 28t28 11t28 -11t11 -28q0 -16 -12 -27 t-27 -11z"/>
<glyph glyph-name="Igrave" horiz-adv-x="255" unicode="Ì" d="M103 725l-76 141h69l56 -141h-49zM34 632v48h187v-48h-61v-584h61v-48h-187v48h61v584h-61z"/>
<glyph glyph-name="Iacute" horiz-adv-x="255" unicode="Í" d="M102 725l56 141h69l-76 -141h-49zM34 632v48h187v-48h-61v-584h61v-48h-187v48h61v584h-61z"/>
<glyph glyph-name="Icircumflex" horiz-adv-x="255" unicode="Î" d="M18 728l109 130h3l109 -130h-50l-60 58l-61 -58h-50zM34 632v48h187v-48h-61v-584h61v-48h-187v48h61v584h-61z"/>
<glyph glyph-name="Idieresis" horiz-adv-x="255" unicode="Ï" d="M63 734q-15 0 -27 11t-12 27q0 17 12 28t27 11t27 -11t12 -28q0 -16 -12 -27t-27 -11zM193 734q-15 0 -27 11t-12 27q0 17 12 28t27 11t27 -11t12 -28q0 -16 -12 -27t-27 -11zM34 632v48h187v-48h-61v-584h61v-48h-187v48h61v584h-61z"/>
<glyph glyph-name="Eth" horiz-adv-x="660" unicode="Ð" d="M159 54h98q145 0 221 78t76 208t-76 208t-221 78h-98v-257h177v-54h-177v-261zM22 315v54h71v263h-61v48h231q167 0 263 -94t96 -246t-96 -246t-263 -94h-231v48h61v267h-71z"/>
<glyph glyph-name="Ntilde" horiz-adv-x="710" unicode="Ñ" d="M401 727q-23 0 -50 18t-37 18q-19 0 -28 -34l-44 6q13 80 69 80q23 0 50 -18t37 -18q19 0 28 34l44 -6q-13 -80 -69 -80zM680 680v-48h-61v-632h-43l-422 586v-538h67v-48h-188v48h61v584h-61v48h127l399 -555v507h-68v48h189z"/>
<glyph glyph-name="Ograve" horiz-adv-x="776" unicode="Ò" d="M362 725l-76 141h69l56 -141h-49zM388 49q121 0 201 83t80 208t-80 208t-201 83t-201 -83t-80 -208t80 -208t201 -83zM388 -8q-146 0 -248 100t-101 248q-1 148 101 248t248 100t248 -100t102 -248t-102 -248t-248 -100z"/>
<glyph glyph-name="Oacute" horiz-adv-x="776" unicode="Ó" d="M388 49q121 0 201 83t80 208t-80 208t-201 83t-201 -83t-80 -208t80 -208t201 -83zM388 -8q-146 0 -248 100t-101 248q-1 148 101 248t248 100t248 -100t102 -248t-102 -248t-248 -100zM360 725l56 141h69l-76 -141h-49z"/>
<glyph glyph-name="Ocircumflex" horiz-adv-x="776" unicode="Ô" d="M388 49q121 0 201 83t80 208t-80 208t-201 83t-201 -83t-80 -208t80 -208t201 -83zM388 -8q-146 0 -248 100t-101 248q-1 148 101 248t248 100t248 -100t102 -248t-102 -248t-248 -100zM278 728l109 130h3l109 -130h-50l-60 58l-61 -58h-50z"/>
<glyph glyph-name="Otilde" horiz-adv-x="776" unicode="Õ" d="M433 727q-21 0 -49 18t-38 18q-19 0 -28 -34l-44 6q13 80 69 80q23 0 50 -18t37 -18q19 0 28 34l44 -6q-13 -80 -69 -80zM388 49q121 0 201 83t80 208t-80 208t-201 83t-201 -83t-80 -208t80 -208t201 -83zM388 -8q-146 0 -248 100t-101 248q-1 148 101 248t248 100 t248 -100t102 -248t-102 -248t-248 -100z"/>
<glyph glyph-name="Odieresis" horiz-adv-x="776" unicode="Ö" d="M388 49q121 0 201 83t80 208t-80 208t-201 83t-201 -83t-80 -208t80 -208t201 -83zM388 -8q-146 0 -248 100t-101 248q-1 148 101 248t248 100t248 -100t102 -248t-102 -248t-248 -100zM323 734q-15 0 -27 11t-12 27q0 17 12 28t27 11t27 -11t12 -28q0 -16 -12 -27 t-27 -11zM453 734q-15 0 -27 11t-12 27q0 17 12 28t27 11t27 -11t12 -28q0 -16 -12 -27t-27 -11z"/>
<glyph glyph-name="multiply" horiz-adv-x="305" unicode="×" d="M187 242l84 -84l-35 -35l-84 84l-83 -84l-36 35l83 84l-83 83l36 35l83 -83l83 83l36 -35z"/>
<glyph glyph-name="Oslash" horiz-adv-x="781" unicode="Ø" d="M109 340q0 -112 60 -187l409 411q-75 67 -187 67q-122 0 -202 -83t-80 -208zM391 49q122 0 202 83t80 208q0 109 -60 186l-411 -410q76 -67 189 -67zM391 -8q-133 0 -230 83l-84 -84l-36 35l84 84q-84 97 -84 230q-1 148 101 248t249 100q132 0 229 -83l83 83l37 -35 l-84 -84q84 -94 84 -229q0 -148 -102 -248t-247 -100z"/>
<glyph glyph-name="Ugrave" horiz-adv-x="663" unicode="Ù" d="M308 725l-76 141h69l56 -141h-49zM633 680v-48h-61v-401q0 -115 -67 -177t-174 -62t-173 62t-67 177v401h-61v48h192v-48h-65v-397q1 -91 47 -139t127 -48q83 0 129 48t46 139v397h-65v48h192z"/>
<glyph glyph-name="Uacute" horiz-adv-x="663" unicode="Ú" d="M633 680v-48h-61v-401q0 -115 -67 -177t-174 -62t-173 62t-67 177v401h-61v48h192v-48h-65v-397q1 -91 47 -139t127 -48q83 0 129 48t46 139v397h-65v48h192zM303 725l56 141h69l-76 -141h-49z"/>
<glyph glyph-name="Ucircumflex" horiz-adv-x="663" unicode="Û" d="M633 680v-48h-61v-401q0 -115 -67 -177t-174 -62t-173 62t-67 177v401h-61v48h192v-48h-65v-397q1 -91 47 -139t127 -48q83 0 129 48t46 139v397h-65v48h192zM221 728l109 130h3l109 -130h-50l-60 58l-61 -58h-50z"/>
<glyph glyph-name="Udieresis" horiz-adv-x="663" unicode="Ü" d="M633 680v-48h-61v-401q0 -115 -67 -177t-174 -62t-173 62t-67 177v401h-61v48h192v-48h-65v-397q1 -91 47 -139t127 -48q83 0 129 48t46 139v397h-65v48h192zM266 734q-15 0 -27 11t-12 27q-1 17 11 28t28 11t28 -11t11 -28q0 -16 -12 -27t-27 -11zM396 734q-15 0 -27 11 t-12 27q-1 17 11 28t28 11t28 -11t11 -28q0 -16 -12 -27t-27 -11z"/>
<glyph glyph-name="Yacute" horiz-adv-x="614" unicode="Ý" d="M278 725l56 141h69l-76 -141h-49zM214 0v48h61v224l-209 360h-52v48h191v-48h-68l173 -300l174 300h-70v48h186v-48h-52l-207 -358v-226h61v-48h-188z"/>
<glyph glyph-name="Thorn" horiz-adv-x="559" unicode="Þ" d="M160 195h127q82 -1 124 39t42 111q-1 71 -43 111t-123 41h-127v-302zM33 632v48h188v-48h-61v-82h133q107 0 167 -57t61 -148q0 -91 -60 -147t-168 -57h-133v-93h70v-48h-197v48h61v584h-61z"/>
<glyph glyph-name="germandbls" horiz-adv-x="432" unicode="ß" d="M19 0v47h43v233h-43v49h43v248q0 69 42 105t100 36q63 0 100 -32t37 -88q0 -30 -14 -67l-76 -231q-8 -24 -8 -39q0 -40 65 -61q46 -16 72 -40t26 -68t-30 -72t-87 -28q-85 0 -123 65l36 31q30 -51 87 -51q30 0 46 13t16 35q-1 25 -15 37t-56 28q-94 34 -94 100 q0 24 13 63l75 233q9 26 9 48q1 35 -21 56t-56 21q-38 0 -61 -24t-23 -71v-576h-103z"/>
<glyph glyph-name="agrave" horiz-adv-x="380" unicode="à" d="M256 154h-94q-34 0 -55 -14t-21 -42q0 -58 78 -58q38 0 65 20t27 53v41zM256 195v6q0 86 -81 86q-57 0 -90 -47l-39 32q50 65 135 65q63 0 99 -34t36 -101v-155h50v-47h-110v42q-34 -50 -106 -50q-53 0 -88 27t-35 79q1 48 37 72t93 25h99zM156 396l-76 141h69l56 -141 h-49z"/>
<glyph glyph-name="aacute" horiz-adv-x="380" unicode="á" d="M256 154h-94q-34 0 -55 -14t-21 -42q0 -58 78 -58q38 0 65 20t27 53v41zM256 195v6q0 86 -81 86q-57 0 -90 -47l-39 32q50 65 135 65q63 0 99 -34t36 -101v-155h50v-47h-110v42q-34 -50 -106 -50q-53 0 -88 27t-35 79q1 48 37 72t93 25h99zM151 396l56 141h69l-76 -141 h-49z"/>
<glyph glyph-name="acircumflex" horiz-adv-x="380" unicode="â" d="M256 154h-94q-34 0 -55 -14t-21 -42q0 -58 78 -58q38 0 65 20t27 53v41zM256 195v6q0 86 -81 86q-57 0 -90 -47l-39 32q50 65 135 65q63 0 99 -34t36 -101v-155h50v-47h-110v42q-34 -50 -106 -50q-53 0 -88 27t-35 79q1 48 37 72t93 25h99zM71 407l109 130h3l109 -130 h-50l-60 58l-61 -58h-50z"/>
<glyph glyph-name="atilde" horiz-adv-x="380" unicode="ã" d="M256 154h-94q-34 0 -55 -14t-21 -42q0 -58 78 -58q38 0 65 20t27 53v41zM256 195v6q0 86 -81 86q-57 0 -90 -47l-39 32q50 65 135 65q63 0 99 -34t36 -101v-155h50v-47h-110v42q-34 -50 -106 -50q-53 0 -88 27t-35 79q1 48 37 72t93 25h99zM226 415q-22 0 -49 18t-38 18 q-19 0 -28 -34l-44 6q13 80 69 80q22 0 49 -18t38 -18q19 0 28 34l44 -6q-13 -80 -69 -80z"/>
<glyph glyph-name="adieresis" horiz-adv-x="380" unicode="ä" d="M256 154h-94q-34 0 -55 -14t-21 -42q0 -58 78 -58q38 0 65 20t27 53v41zM256 195v6q0 86 -81 86q-57 0 -90 -47l-39 32q50 65 135 65q63 0 99 -34t36 -101v-155h50v-47h-110v42q-34 -50 -106 -50q-53 0 -88 27t-35 79q1 48 37 72t93 25h99zM116 422q-15 0 -27 11t-12 27 q-1 17 11 28t28 11t28 -11t11 -28q0 -16 -12 -27t-27 -11zM246 422q-15 0 -27 11t-12 27q-1 17 11 28t28 11t28 -11t11 -28q0 -16 -12 -27t-27 -11z"/>
<glyph glyph-name="aring" horiz-adv-x="380" unicode="å" d="M256 154h-94q-34 0 -55 -14t-21 -42q0 -58 78 -58q38 0 65 20t27 53v41zM256 195v6q0 86 -81 86q-57 0 -90 -47l-39 32q50 65 135 65q63 0 99 -34t36 -101v-155h50v-47h-110v42q-34 -50 -106 -50q-53 0 -88 27t-35 79q1 48 37 72t93 25h99zM181 423q18 -1 29 11t11 31 q1 19 -11 31t-29 11q-17 1 -29 -11t-11 -31q0 -19 11 -31t29 -11zM181 386q-34 0 -58 24t-24 55q0 32 24 56t58 24t58 -24t24 -56q0 -31 -24 -55t-58 -24z"/>
<glyph glyph-name="ae" horiz-adv-x="620" unicode="æ" d="M317 193h213q-7 43 -33 69t-72 26q-41 0 -71 -26t-37 -69zM537 85l36 -35q-48 -58 -140 -58q-101 0 -145 81q-31 -81 -136 -81q-54 0 -90 27t-35 78q0 47 36 71t93 24h100v5q0 50 -21 70t-60 20q-57 0 -90 -47l-39 32q50 65 135 65q89 0 113 -75q43 75 131 75 q77 -1 123 -53t44 -134h-276q2 -49 34 -79t84 -30q63 0 103 44zM256 151h-95q-75 0 -75 -54q0 -27 21 -42t57 -15q38 0 65 20t27 55v36z"/>
<glyph glyph-name="ccedilla" horiz-adv-x="367" unicode="ç" d="M193 -192q-60 0 -82 46l35 21q12 -27 43 -27q34 0 34 33q0 36 -41 36h-17v78q-61 11 -99 57t-38 112q0 74 48 124t119 49q60 0 88 -39v31h48v-106h-46q-15 65 -84 65q-51 0 -82 -35t-31 -89q0 -51 32 -86t81 -35q61 0 96 42l39 -35q-47 -57 -132 -58v-42q28 -3 46 -22 t18 -50q0 -32 -22 -51t-53 -19z"/>
<glyph glyph-name="egrave" horiz-adv-x="395" unicode="è" d="M173 396l-76 141h69l56 -141h-49zM91 190h214q-7 42 -33 70t-72 28q-43 0 -73 -27t-36 -71zM91 147q2 -48 35 -77t83 -29q63 0 103 44l36 -35q-48 -58 -144 -58q-77 0 -126 49t-49 123q-1 74 49 124t122 49q77 1 123 -53q44 -51 44 -130v-7h-276z"/>
<glyph glyph-name="eacute" horiz-adv-x="395" unicode="é" d="M91 190h214q-7 42 -33 70t-72 28q-43 0 -73 -27t-36 -71zM91 147q2 -48 35 -77t83 -29q63 0 103 44l36 -35q-48 -58 -144 -58q-77 0 -126 49t-49 123q-1 74 49 124t122 49q77 1 123 -53q44 -51 44 -130v-7h-276zM170 396l56 141h69l-76 -141h-49z"/>
<glyph glyph-name="ecircumflex" horiz-adv-x="395" unicode="ê" d="M91 190h214q-7 42 -33 70t-72 28q-43 0 -73 -27t-36 -71zM91 147q2 -48 35 -77t83 -29q63 0 103 44l36 -35q-48 -58 -144 -58q-77 0 -126 49t-49 123q-1 74 49 124t122 49q77 1 123 -53q44 -51 44 -130v-7h-276zM88 407l109 130h3l109 -130h-50l-60 58l-61 -58h-50z"/>
<glyph glyph-name="edieresis" horiz-adv-x="395" unicode="ë" d="M91 190h214q-7 42 -33 70t-72 28q-43 0 -73 -27t-36 -71zM91 147q2 -48 35 -77t83 -29q63 0 103 44l36 -35q-48 -58 -144 -58q-77 0 -126 49t-49 123q-1 74 49 124t122 49q77 1 123 -53q44 -51 44 -130v-7h-276zM133 422q-15 0 -27 11t-12 27q0 17 12 28t27 11t27 -11 t12 -28q0 -16 -12 -27t-27 -11zM263 422q-15 0 -27 11t-12 27q0 17 12 28t27 11t27 -11t12 -28q0 -16 -12 -27t-27 -11z"/>
<glyph glyph-name="igrave" horiz-adv-x="193" unicode="ì" d="M72 396l-76 141h69l56 -141h-49zM16 280v49h111v-282h51v-47h-162v47h51v233h-51z"/>
<glyph glyph-name="iacute" horiz-adv-x="193" unicode="í" d="M16 280v49h111v-282h51v-47h-162v47h51v233h-51zM69 396l56 141h69l-76 -141h-49z"/>
<glyph glyph-name="icircumflex" horiz-adv-x="193" unicode="î" d="M16 280v49h111v-282h51v-47h-162v47h51v233h-51zM-13 407l109 130h3l109 -130h-50l-60 58l-61 -58h-50z"/>
<glyph glyph-name="idieresis" horiz-adv-x="193" unicode="ï" d="M16 280v49h111v-282h51v-47h-162v47h51v233h-51zM32 422q-15 0 -27 11t-12 27q-1 17 11 28t28 11t28 -11t11 -28q0 -16 -12 -27t-27 -11zM162 422q-15 0 -27 11t-12 27q-1 17 11 28t28 11t28 -11t11 -28q0 -16 -12 -27t-27 -11z"/>
<glyph glyph-name="eth" horiz-adv-x="414" unicode="ð" d="M205 288q-49 0 -81 -35t-32 -89q0 -53 32 -88t81 -35q49 1 81 35t31 88q1 54 -31 89t-81 35zM122 522l58 48q-33 39 -91 90l30 40q62 -50 102 -95l56 47l29 -33l-56 -47q59 -74 94 -172t35 -204q-1 -100 -49 -152t-125 -52q-75 0 -125 50t-50 122q0 74 48 124t118 49 q84 0 118 -69q-18 159 -106 269l-57 -48z"/>
<glyph glyph-name="ntilde" horiz-adv-x="432" unicode="ñ" d="M253 415q-23 0 -50 18t-37 18q-19 0 -28 -34l-44 6q13 80 69 80q23 0 50 -18t37 -18q19 0 28 34l44 -6q-13 -80 -69 -80zM255 0v47h51v152q0 87 -80 87q-45 0 -72 -28t-27 -73v-138h51v-47h-162v47h51v233h-51v49h111v-56q32 64 114 64q57 0 91 -35t34 -100v-155h51v-47 h-162z"/>
<glyph glyph-name="ograve" horiz-adv-x="406" unicode="ò" d="M178 396l-76 141h69l56 -141h-49zM203 41q49 0 81 35t32 88q0 54 -32 89t-81 35t-81 -35t-31 -89q-1 -54 31 -88t81 -35zM203 -8q-73 0 -123 50t-51 122q1 74 51 124t123 49q75 1 125 -49t50 -124q0 -72 -50 -122t-125 -50z"/>
<glyph glyph-name="oacute" horiz-adv-x="406" unicode="ó" d="M203 41q49 0 81 35t32 88q0 54 -32 89t-81 35t-81 -35t-31 -89q-1 -54 31 -88t81 -35zM203 -8q-73 0 -123 50t-51 122q1 74 51 124t123 49q75 1 125 -49t50 -124q0 -72 -50 -122t-125 -50zM175 396l56 141h69l-76 -141h-49z"/>
<glyph glyph-name="ocircumflex" horiz-adv-x="406" unicode="ô" d="M203 41q49 0 81 35t32 88q0 54 -32 89t-81 35t-81 -35t-31 -89q-1 -54 31 -88t81 -35zM203 -8q-73 0 -123 50t-51 122q1 74 51 124t123 49q75 1 125 -49t50 -124q0 -72 -50 -122t-125 -50zM93 407l109 130h3l109 -130h-50l-60 58l-61 -58h-50z"/>
<glyph glyph-name="otilde" horiz-adv-x="406" unicode="õ" d="M248 415q-22 0 -49 18t-38 18q-19 0 -28 -34l-44 6q13 80 69 80q23 0 50 -18t37 -18q19 0 28 34l44 -6q-13 -80 -69 -80zM203 41q49 0 81 35t32 88q0 54 -32 89t-81 35t-81 -35t-31 -89q-1 -54 31 -88t81 -35zM203 -8q-73 0 -123 50t-51 122q1 74 51 124t123 49 q75 1 125 -49t50 -124q0 -72 -50 -122t-125 -50z"/>
<glyph glyph-name="odieresis" horiz-adv-x="406" unicode="ö" d="M203 41q49 0 81 35t32 88q0 54 -32 89t-81 35t-81 -35t-31 -89q-1 -54 31 -88t81 -35zM203 -8q-73 0 -123 50t-51 122q1 74 51 124t123 49q75 1 125 -49t50 -124q0 -72 -50 -122t-125 -50zM138 422q-15 0 -27 11t-12 27q-1 17 11 28t28 11t28 -11t11 -28q0 -16 -12 -27 t-27 -11zM268 422q-15 0 -27 11t-12 27q-1 17 11 28t28 11t28 -11t11 -28q0 -16 -12 -27t-27 -11z"/>
<glyph glyph-name="divide" horiz-adv-x="343" unicode="÷" d="M172 79q-18 0 -32 13t-14 33q0 19 14 32t32 13t32 -13t13 -32q1 -20 -13 -33t-32 -13zM172 330q-18 0 -32 13t-14 33q0 19 14 32t32 13t32 -13t13 -32q1 -20 -13 -33t-32 -13zM305 224h-267v53h267v-53z"/>
<glyph glyph-name="oslash" horiz-adv-x="408" unicode="ø" d="M204 39q51 -1 83 35t32 90q0 36 -15 62l-176 -159q31 -28 76 -28zM89 164q0 -32 15 -62l176 160q-30 28 -76 28q-51 0 -83 -36t-32 -90zM204 -8q-66 0 -115 41l-48 -43l-28 31l48 43q-31 46 -31 100q0 74 50 124t124 49q67 0 114 -42l50 45l28 -32l-49 -44 q32 -45 32 -100q-1 -72 -51 -122t-124 -50z"/>
<glyph glyph-name="ugrave" horiz-adv-x="425" unicode="ù" d="M176 396l-76 141h69l56 -141h-49zM246 280v49h112v-282h51v-47h-111v59q-12 -31 -44 -49t-69 -18q-59 0 -93 34t-33 101v153h-50v49h110v-197q0 -89 80 -89q45 -1 72 27t27 76v134h-52z"/>
<glyph glyph-name="uacute" horiz-adv-x="425" unicode="ú" d="M246 280v49h112v-282h51v-47h-111v59q-12 -31 -44 -49t-69 -18q-59 0 -93 34t-33 101v153h-50v49h110v-197q0 -89 80 -89q45 -1 72 27t27 76v134h-52zM173 396l56 141h69l-76 -141h-49z"/>
<glyph glyph-name="ucircumflex" horiz-adv-x="425" unicode="û" d="M246 280v49h112v-282h51v-47h-111v59q-12 -31 -44 -49t-69 -18q-59 0 -93 34t-33 101v153h-50v49h110v-197q0 -89 80 -89q45 -1 72 27t27 76v134h-52zM91 407l109 130h3l109 -130h-50l-60 58l-61 -58h-50z"/>
<glyph glyph-name="udieresis" horiz-adv-x="425" unicode="ü" d="M246 280v49h112v-282h51v-47h-111v59q-12 -31 -44 -49t-69 -18q-59 0 -93 34t-33 101v153h-50v49h110v-197q0 -89 80 -89q45 -1 72 27t27 76v134h-52zM136 422q-15 0 -27 11t-12 27q-1 17 11 28t28 11t28 -11t11 -28q0 -16 -12 -27t-27 -11zM266 422q-15 0 -27 11t-12 27 q-1 17 11 28t28 11t28 -11t11 -28q0 -16 -12 -27t-27 -11z"/>
<glyph glyph-name="yacute" horiz-adv-x="379" unicode="ý" d="M6 280v49h146v-49h-45l90 -194l82 194h-47v49h141v-49h-38l-194 -443h51v-49h-156v49h49l82 187l-123 256h-38zM161 396l56 141h69l-76 -141h-49z"/>
<glyph glyph-name="thorn" horiz-adv-x="426" unicode="þ" d="M221 42q49 0 81 34t32 88q0 55 -32 89t-81 34t-80 -34t-31 -89q0 -54 31 -88t80 -34zM53 -166v828h-51v48h111v-439q37 66 121 66q68 1 114 -49t47 -124q-1 -72 -47 -122t-114 -50q-85 0 -121 64v-222h55v-46h-166v46h51z"/>
<glyph glyph-name="OE" horiz-adv-x="952" unicode="Œ" d="M403 57h81v566h-81q-145 0 -221 -77t-75 -206q-1 -129 75 -206t221 -77zM843 532v92h-293v-256h293v-52h-293v-260h307v92h53v-148h-512q-166 0 -262 94t-97 246q0 152 96 246t263 94h498v-148h-53z"/>
<glyph glyph-name="oe" horiz-adv-x="682" unicode="œ" d="M378 190h213q-5 42 -32 70t-73 28q-42 0 -72 -27t-36 -71zM203 41q49 0 81 35t32 88q0 54 -32 89t-81 35t-81 -35t-31 -89q-1 -54 31 -88t81 -35zM345 78q-19 -40 -57 -63t-85 -23q-73 0 -123 50t-51 122q1 74 51 124t123 49q47 1 85 -23t57 -65q20 41 57 65t84 23 q78 1 124 -53q44 -51 44 -130v-7h-277q3 -48 35 -77t83 -29q63 0 103 44l37 -35q-48 -58 -140 -58q-108 0 -150 86z"/>
<glyph glyph-name="Scaron" horiz-adv-x="518" unicode="Š" d="M271 -8q-61 0 -109 25t-72 65v-82h-54v198h50q9 -68 57 -109t123 -41q67 0 107 34t40 88q0 52 -30 81t-99 61l-55 26q-83 39 -122 79t-39 109q0 72 50 117t127 45q95 0 142 -69v61h54v-165h-51q-12 57 -48 87t-90 31q-52 1 -86 -29t-34 -74q0 -45 28 -72t94 -59l55 -26 q92 -43 131 -85t39 -118q0 -82 -58 -130t-150 -48zM256 715l-109 130h50l60 -58l61 58h50l-109 -130h-3z"/>
<glyph glyph-name="scaron" horiz-adv-x="316" unicode="š" d="M267 233h-43q-12 58 -72 58q-26 0 -41 -11t-15 -30q0 -20 17 -31t60 -22q57 -16 85 -40t28 -65q0 -46 -33 -73t-85 -27q-73 0 -100 42v-34h-44v108h44q13 -70 91 -70q32 0 50 12t18 36q0 22 -18 34t-63 25q-54 15 -80 38t-26 62q0 41 30 67t74 25q56 0 77 -36v28h46v-96z M154 403l-109 130h50l60 -58l61 58h50l-109 -130h-3z"/>
<glyph glyph-name="Ydieresis" horiz-adv-x="614" unicode="Ÿ" d="M242 734q-15 0 -27 11t-12 27q-1 17 11 28t28 11t28 -11t11 -28q0 -16 -12 -27t-27 -11zM372 734q-15 0 -27 11t-12 27q-1 17 11 28t28 11t28 -11t11 -28q0 -16 -12 -27t-27 -11zM214 0v48h61v224l-209 360h-52v48h191v-48h-68l173 -300l174 300h-70v48h186v-48h-52 l-207 -358v-226h61v-48h-188z"/>
<glyph glyph-name="circumflex" horiz-adv-x="500" unicode="ˆ" d="M139 407l109 130h3l109 -130h-50l-60 58l-61 -58h-50z"/>
<glyph glyph-name="tilde" horiz-adv-x="500" unicode="˜" d="M295 415q-23 0 -50 18t-37 18q-19 0 -28 -34l-44 6q13 80 69 80q23 0 50 -18t37 -18q19 0 28 34l44 -6q-13 -80 -69 -80z"/>
<glyph glyph-name="uni2009" horiz-adv-x="70" unicode=" "/>
<glyph glyph-name="endash" horiz-adv-x="393" unicode="–" d="M36 164v52h321v-52h-321z"/>
<glyph glyph-name="emdash" horiz-adv-x="619" unicode="—" d="M36 164v52h547v-52h-547z"/>
<glyph glyph-name="quoteleft" horiz-adv-x="174" unicode="‘" d="M87 517q-18 -1 -32 13t-14 32t12 40l42 78h34l-26 -75q30 -12 30 -42q0 -19 -14 -33t-32 -13z"/>
<glyph glyph-name="quotesinglbase" horiz-adv-x="174" unicode="‚" d="M45 -77l26 75q-12 4 -21 16t-9 26q0 18 14 32t32 14t32 -14t14 -32q0 -17 -12 -39l-42 -78h-34z"/>
<glyph glyph-name="quotedblleft" horiz-adv-x="310" unicode="“" d="M87 517q-18 -1 -32 13t-14 32t12 40l42 78h34l-26 -75q30 -12 30 -42q0 -19 -14 -33t-32 -13zM223 517q-18 -1 -32 13t-14 32t12 40l42 78h33l-25 -75q30 -12 30 -42q0 -19 -14 -33t-32 -13z"/>
<glyph glyph-name="quotedblright" horiz-adv-x="310" unicode="”" d="M45 525l26 75q-12 4 -21 16t-9 26q0 19 14 32t32 13t32 -13t14 -32q0 -17 -12 -39l-42 -78h-34zM181 525l25 75q-11 4 -20 16t-9 26q0 19 14 32t32 13t32 -13t14 -32q0 -17 -12 -39l-42 -78h-34z"/>
<glyph glyph-name="dagger" horiz-adv-x="264" unicode="†" d="M102 536h-73v51h73v93h59v-93h74v-51h-74v-220h-59v220z"/>
<glyph glyph-name="daggerdbl" horiz-adv-x="264" unicode="‡" d="M102 537h-73v50h73v93h59v-93h74v-50h-74v-78h74v-50h-74v-93h-59v93h-73v50h73v78z"/>
<glyph glyph-name="ellipsis" horiz-adv-x="515" unicode="…" d="M87 -6q-19 0 -33 14t-14 33t14 33t33 14t33 -14t14 -33t-14 -33t-33 -14zM258 -6q-19 0 -33 14t-14 33t14 33t33 14q18 0 32 -14t14 -33t-14 -33t-32 -14zM428 -6q-19 0 -33 14t-14 33t14 33t33 14t33 -14t14 -33t-14 -33t-33 -14z"/>
<glyph glyph-name="perthousand" horiz-adv-x="914" unicode="‰" d="M757 41q31 -1 52 21t21 55t-21 55t-52 22t-53 -22t-21 -55q-1 -33 21 -55t53 -21zM757 -8q-52 0 -90 36t-38 89q-1 55 37 91t91 36q52 0 90 -36t38 -91q0 -53 -38 -89t-90 -36zM467 41q32 -1 53 21t21 55t-21 55t-53 22q-31 0 -52 -22t-21 -55t21 -55t52 -21zM467 -8 q-52 0 -90 36t-38 89q0 55 38 91t90 36q53 0 91 -36t38 -91q0 -53 -38 -89t-91 -36zM128 0l309 514h62l-309 -514h-62zM160 319q31 0 52 22t21 55q0 32 -21 54t-52 22q-32 0 -53 -22t-21 -54q0 -34 21 -56t53 -21zM160 270q-52 0 -90 36t-38 90t38 90t90 36t90 -36t37 -90 q1 -54 -37 -90t-90 -36z"/>
<glyph glyph-name="guilsinglleft" horiz-adv-x="207" unicode="‹" d="M93 164l79 -132h-62l-78 130v4l78 128h62z"/>
<glyph glyph-name="guilsinglright" horiz-adv-x="207" unicode="›" d="M35 32l79 130l-79 132h61l79 -130v-4l-79 -128h-61z"/>
<glyph glyph-name="fraction" horiz-adv-x="344" unicode="⁄" d="M-13 0l309 514h61l-309 -514h-61z"/>
<glyph glyph-name="Euro" horiz-adv-x="605" unicode="€" d="M365 468q-65 0 -115 -36t-70 -97h233v-45h-243q-2 -11 -2 -33q0 -13 2 -35l243 1v-46h-232q21 -59 71 -95t113 -36q104 0 163 81l45 -34q-73 -101 -207 -101q-86 0 -156 50t-96 135h-83v45h74q-2 11 -2 35q0 11 2 33h-74v45h83q24 83 94 135t156 52q104 0 153 -61v53h51 v-156h-45q-9 54 -55 82t-103 28z"/>
<glyph glyph-name="trademark" horiz-adv-x="538" unicode="™" d="M180 613v29h-44v-154h31v-31h-104v31h32v154h-44v-29h-31v67h190v-67h-30zM422 457v31h27v136l-69 -106h-11l-68 105v-135h28v-31h-92v31h27v156h-27v36h69l69 -107l71 107h68v-36h-27v-156h27v-31h-92z"/>
<glyph glyph-name="summation" horiz-adv-x="559" unicode="∑" d="M41 0v27l257 317l-259 310v26h472v-148h-53v94h-320l232 -277l-1 -13l-232 -282h328v94h53v-148h-477z"/>
<glyph glyph-name="minus" horiz-adv-x="334" unicode="−" d="M296 224h-258v53h258v-53z"/>
</font>
</defs>
</svg>
